<?xml version="1.0" encoding="utf-8"?>
<!-- Generator: Adobe Illustrator 16.0.0, SVG Export Plug-In . SVG Version: 6.00 Build 0)  -->
<!DOCTYPE svg PUBLIC "-//W3C//DTD SVG 1.1//EN" "http://www.w3.org/Graphics/SVG/1.1/DTD/svg11.dtd">
<svg version="1.1" id="Layer_1" xmlns="http://www.w3.org/2000/svg" xmlns:xlink="http://www.w3.org/1999/xlink" x="0px" y="0px"
	 width="86px" height="17px" viewBox="0 0 86 17" enable-background="new 0 0 86 17" xml:space="preserve">
<g>
	<defs>
		<rect id="SVGID_1_" width="86" height="17"/>
	</defs>
	<clipPath id="SVGID_2_">
		<use xlink:href="#SVGID_1_"  overflow="visible"/>
	</clipPath>
	<path clip-path="url(#SVGID_2_)" fill="#0055A5" d="M2.734,15.608V1.18c0-0.346,0.362-0.685,0.362-0.685H0
		c0,0,0.362,0.348,0.362,0.685v14.429C0.362,15.952,0,16.295,0,16.295h3.096C3.096,16.295,2.734,15.948,2.734,15.608 M23.43,15.052
		V1.18c0-0.346,0.361-0.685,0.361-0.685h-3.096c0,0,0.361,0.348,0.361,0.685v11.236L10.211,0.891L9.854,0.495H7.403
		c0,0,0.361,0.348,0.361,0.685v0.676v13.753c0,0.344-0.361,0.687-0.361,0.687h3.096c0,0-0.361-0.347-0.361-0.687V4.49l10.808,11.482
		l0.291,0.322h2.556c0,0-0.361-0.347-0.361-0.687V15.052z M44.977,8.501c0-0.346,0.289-0.693,0.289-0.693h-0.068h-8.722v1.774v0.721
		c0,0,0.062-0.067,0.16-0.145c0.129-0.104,0.321-0.222,0.515-0.223h5.516v0.979v2.328c-1.759,1.132-3.964,1.446-5.612,1.446
		c-4.506,0-7.418-2.418-7.418-6.161c0-3.72,2.903-6.219,7.224-6.219c2.413,0,4.459,0.598,6.252,1.823l1.338-1.938
		C42.375,0.737,39.938,0,37.206,0c-2.778,0-5.297,0.8-7.092,2.253c-1.905,1.542-2.912,3.711-2.912,6.271
		c0,2.539,1.007,4.692,2.912,6.228C31.911,16.202,34.43,17,37.206,17c2.212,0,4.9-0.64,6.823-1.57
		c0.343-0.164,0.661-0.34,0.948-0.521V8.501z M52.152,0.495h-3.096c0,0,0.361,0.348,0.361,0.685v14.429
		c0,0.344-0.361,0.687-0.361,0.687h3.096c0,0-0.361-0.347-0.361-0.687V1.18C51.791,0.834,52.152,0.495,52.152,0.495 M63.282,15.143
		c-0.536-0.501-7.938-7.103-7.938-7.103s6.673-6.398,7.025-6.724c0.335-0.31,1.305-0.833,1.305-0.833h-4.339
		c0,0,0.399,0.341,0.063,0.687c-0.285,0.291-7.316,6.86-7.316,6.86c7.642,6.941,7.988,7.161,8.357,7.567
		c0.308,0.336-0.134,0.686-0.134,0.686h4.666C64.972,16.283,63.684,15.518,63.282,15.143 M78.782,10.403h-7.217
		c1.223-2.523,2.634-5.432,3.608-7.441C76.149,4.972,77.56,7.88,78.782,10.403 M76.804,0.495H76.37h-2.393h-0.434
		c0,0,0.195,0.345,0.014,0.687c-0.183,0.342-7.12,14.03-7.295,14.371s-0.738,0.742-0.738,0.742h3.924c0,0-0.563-0.339-0.403-0.687
		c0.046-0.096,0.636-1.317,1.464-3.025h9.33c0.828,1.708,1.419,2.93,1.463,3.025c0.161,0.348-0.402,0.687-0.402,0.687h3.924
		c0,0-0.563-0.401-0.738-0.742S76.973,1.523,76.791,1.182C76.608,0.84,76.804,0.495,76.804,0.495 M81.786,0.896h0.771V0.501h-1.97
		v0.396h0.771v1.985h0.428V0.896z M86,2.882V0.501h-0.765l-0.644,1.292l-0.644-1.292h-0.801v2.381h0.414V0.771h0.084l0.805,1.55
		h0.267l0.798-1.525h0.067v2.087H86z"/>
</g>
</svg>
